<!-- VNExpress News Scraper Project Image -->
<svg width="400" height="250" xmlns="http://www.w3.org/2000/svg">
  <defs>
    <linearGradient id="vneGrad" x1="0%" y1="0%" x2="100%" y2="100%">
      <stop offset="0%" style="stop-color:#E53E3E"/>
      <stop offset="100%" style="stop-color:#C53030"/>
    </linearGradient>
  </defs>
  <rect width="100%" height="100%" fill="url(#vneGrad)"/>
  <rect x="20" y="20" width="360" height="210" fill="white" opacity="0.95" rx="10"/>
  
  <!-- VNE Logo -->
  <rect x="40" y="40" width="80" height="25" fill="#E53E3E"/>
  <text x="80" y="56" text-anchor="middle" fill="white" font-family="Arial" font-size="12" font-weight="bold">VnExpress</text>
  
  <!-- News Articles -->
  <rect x="40" y="80" width="120" height="60" fill="#f7fafc" stroke="#e2e8f0" rx="5"/>
  <rect x="50" y="90" width="100" height="8" fill="#4299e1"/>
  <rect x="50" y="105" width="80" height="4" fill="#a0aec0"/>
  <rect x="50" y="115" width="90" height="4" fill="#a0aec0"/>
  <rect x="50" y="125" width="70" height="4" fill="#a0aec0"/>
  
  <rect x="180" y="80" width="120" height="60" fill="#f7fafc" stroke="#e2e8f0" rx="5"/>
  <rect x="190" y="90" width="100" height="8" fill="#48bb78"/>
  <rect x="190" y="105" width="85" height="4" fill="#a0aec0"/>
  <rect x="190" y="115" width="95" height="4" fill="#a0aec0"/>
  <rect x="190" y="125" width="75" height="4" fill="#a0aec0"/>
  
  <!-- CSV Icon -->
  <rect x="320" y="80" width="50" height="60" fill="#38a169" rx="5"/>
  <text x="345" y="100" text-anchor="middle" fill="white" font-family="Arial" font-size="10" font-weight="bold">CSV</text>
  <text x="345" y="115" text-anchor="middle" fill="white" font-family="Arial" font-size="8">DATA</text>
  
  <!-- Arrows -->
  <path d="M 165 110 L 175 110" stroke="#333" stroke-width="2"/>
  <path d="M 305 110 L 315 110" stroke="#333" stroke-width="2"/>
  
  <text x="200" y="180" text-anchor="middle" fill="#333" font-family="Arial" font-size="16" font-weight="bold">VNExpress News Scraper</text>
  <text x="200" y="200" text-anchor="middle" fill="#666" font-family="Arial" font-size="12">Multi-Category Data Extraction</text>
</svg>